<svg xmlns="http://www.w3.org/2000/svg" width="608" height="376" fill="none" viewBox="0 0 608 376">
    <path fill="#D1D3D4" d="M324.234 340.514c0-.162-1.376-17.095-7.365-36.863-5.504-18.229-16.188-42.615-35.855-55.335l.242-.324c19.749 12.882 30.433 37.349 36.017 55.578 5.99 19.768 7.366 36.782 7.366 36.944h-.405z"/>
    <path fill="#D1D3D4" d="M291.618 256.742h-.243l-.162-.081v-.162c.081-.486 1.7-10.937 6.07-13.205 1.133-.567 2.347-.567 3.642.081 2.024 1.053 2.59 2.673 1.619 4.699-1.7 3.888-9.146 8.668-10.926 8.668zm7.446-13.448c-.486 0-.971.162-1.457.405-3.885 1.944-5.585 11.18-5.828 12.719 1.295-.162 8.661-4.456 10.603-8.425.891-1.864.405-3.16-1.457-4.132-.728-.405-1.295-.567-1.861-.567zM300.682 267.923h-.243l-.162-.081v-.162c.081-.486 1.7-10.937 6.071-13.206 1.133-.567 2.347-.567 3.642.081 2.023 1.054 2.59 2.674 1.619 4.699-1.7 3.808-9.146 8.669-10.927 8.669zm7.446-13.53c-.485 0-.971.162-1.457.405-3.885 1.945-5.584 11.181-5.827 12.72 1.295-.162 8.66-4.456 10.603-8.426.89-1.863.404-3.159-1.457-4.132-.729-.405-1.295-.567-1.862-.567zM308.048 280.157c-.243 0-.405 0-.486-.081l-.162-.081.081-.162c.162-.405 3.804-10.451 8.499-11.748 1.214-.324 2.428-.081 3.561.81 1.781 1.378 2.023 3.079.728 4.942-2.428 3.241-10.036 6.32-12.221 6.32zm-.162-.405c1.295.162 9.389-2.674 12.06-6.239 1.214-1.62.971-3.078-.648-4.374-1.052-.811-2.104-1.054-3.237-.73-4.128 1.216-7.608 9.965-8.175 11.343zM314.441 293.444c-.567 0-.972-.082-1.133-.244l-.081-.081.081-.162c.242-.405 5.422-9.722 10.279-10.37 1.295-.162 2.428.324 3.399 1.377 1.538 1.702 1.538 3.403-.081 4.943-2.671 2.673-9.632 4.537-12.464 4.537zm-.648-.406c1.295.324 9.713-1.215 12.869-4.375 1.457-1.458 1.457-2.835 0-4.374-.89-.973-1.942-1.378-3.075-1.216-4.29.567-9.065 8.588-9.794 9.965zM319.54 307.783c-.729 0-1.295-.081-1.457-.324l-.081-.081.081-.162c.243-.405 5.908-9.479 10.765-9.803 1.295-.081 2.428.405 3.318 1.539 1.457 1.783 1.376 3.484-.324 4.942-2.671 2.431-9.227 3.889-12.302 3.889zm-1.052-.486c1.295.405 9.712-.729 13.03-3.646 1.538-1.377 1.619-2.754.243-4.375-.809-.972-1.861-1.458-2.994-1.377-4.209.243-9.389 8.102-10.279 9.398zM323.425 323.096c-.89 0-1.538-.081-1.7-.324l-.08-.081.08-.162c.243-.406 6.152-9.317 11.008-9.56 1.295-.081 2.347.486 3.318 1.62 1.457 1.782 1.295 3.484-.404 4.942-2.752 2.268-9.146 3.565-12.222 3.565zm-1.295-.486c1.295.405 9.794-.487 13.112-3.403 1.538-1.296 1.7-2.755.405-4.375-.81-1.053-1.781-1.539-2.914-1.458-4.371.243-9.713 7.939-10.603 9.236zM325.369 336.059c-.891 0-1.538-.081-1.7-.324l-.081-.081.081-.163c.243-.405 6.151-9.317 11.007-9.56 1.295-.081 2.347.487 3.319 1.621 1.457 1.782 1.295 3.484-.405 4.942-2.752 2.268-9.065 3.565-12.221 3.565zm-1.215-.486c1.295.405 9.794-.487 13.112-3.403 1.538-1.296 1.7-2.755.405-4.375-.809-.972-1.781-1.539-2.914-1.458-4.37.243-9.793 7.939-10.603 9.236z"/>
    <path fill="#D1D3D4" d="M314.604 337.922c-1.7 0-3.237-.162-4.451-.649-2.105-.81-2.833-2.349-2.024-4.537.486-1.377 1.295-2.187 2.59-2.592 4.694-1.377 13.193 5.104 13.598 5.428l.161.081-.08.162c-.405.891-5.423 2.107-9.794 2.107zm-2.509-7.535c-.486 0-.89.081-1.376.162-1.052.324-1.861 1.134-2.266 2.35-.729 1.944-.081 3.24 1.78 4.05 4.128 1.621 12.465-.324 13.517-1.134-.971-.81-7.365-5.428-11.655-5.428zM311.608 325.364c-1.538 0-2.913-.162-3.966-.567-2.104-.729-2.832-2.35-2.185-4.456.405-1.377 1.295-2.268 2.509-2.593 4.694-1.458 13.355 4.861 13.678 5.105l.162.081-.081.162c-.323.891-5.665 2.268-10.117 2.268zm-2.023-7.453c-.486 0-1.052.081-1.457.243-1.052.324-1.862 1.134-2.266 2.349-.648 1.944 0 3.241 1.942 3.97 4.209 1.539 12.464-.567 13.517-1.377-1.214-.811-7.447-5.185-11.736-5.185zM306.024 311.429c-.648 0-1.214-.081-1.7-.162-2.185-.486-3.156-1.863-2.752-4.132.243-1.377.971-2.43 2.105-2.916 4.451-2.107 13.921 2.916 14.245 3.16l.161.081v.162c-.323 1.053-7.365 3.807-12.059 3.807zm.243-7.372c-.972 0-1.781.162-2.509.486-1.053.486-1.619 1.377-1.862 2.674-.324 2.025.405 3.24 2.428 3.645 4.371.891 12.222-2.349 13.112-3.321-.971-.487-6.88-3.484-11.169-3.484zM301.978 296.36c-.81 0-1.538-.081-2.105-.243-2.185-.486-3.075-2.026-2.671-4.213.324-1.378 1.052-2.35 2.186-2.917 4.451-2.025 13.759 3.403 14.164 3.565l.161.081v.162c-.323 1.215-7.041 3.565-11.735 3.565zm-.162-7.373c-.81 0-1.619.081-2.186.405-1.052.486-1.699 1.297-1.942 2.593-.405 2.025.324 3.24 2.347 3.727 4.371 1.053 12.302-1.945 13.274-2.836-1.214-.567-7.285-3.889-11.493-3.889zM295.098 286.07h-.243c-2.266-.081-3.48-1.296-3.48-3.645 0-1.459.567-2.512 1.538-3.241 3.966-2.836 14.164.567 14.649.729l.162.081v.162c0 1.215-8.012 5.914-12.626 5.914zm2.59-7.615c-1.7 0-3.318.243-4.371 1.053-.89.648-1.375 1.62-1.375 2.917 0 2.106.971 3.159 3.075 3.24 4.452.162 11.655-4.375 12.384-5.428-1.134-.405-5.747-1.782-9.713-1.782zM288.542 271.974c-.486 0-.971 0-1.376-.081-2.266-.405-3.238-1.782-2.914-4.051.243-1.377.89-2.43 2.024-2.997 4.37-2.269 13.921 2.511 14.406 2.754l.162.081v.162c-.324 1.134-7.608 4.132-12.302 4.132zm.647-7.373c-1.052 0-2.023.162-2.752.568-.971.486-1.618 1.458-1.78 2.673-.324 2.026.566 3.241 2.59 3.565 4.37.729 12.14-2.674 13.031-3.646-1.133-.486-6.88-3.16-11.089-3.16zM279.477 260.793c-.485 0-.971 0-1.376-.081-2.266-.405-3.237-1.782-2.913-4.051.242-1.377.89-2.43 2.023-2.997 4.371-2.269 13.921 2.511 14.407 2.754l.162.081v.162c-.324 1.054-7.608 4.132-12.303 4.132zm.648-7.372c-1.052 0-2.024.162-2.752.567-.971.486-1.619 1.458-1.781 2.673-.323 2.026.567 3.241 2.59 3.565 4.371.729 12.141-2.673 13.031-3.646-1.133-.486-6.879-3.159-11.088-3.159zM281.176 248.56c-2.59 0-9.874-2.188-12.464-5.104-1.538-1.621-1.457-3.322.162-4.942 1.052-.973 2.185-1.378 3.399-1.216 4.856.811 9.632 10.371 9.794 10.776l.081.162-.081.081c-.162.162-.405.243-.891.243zm-9.55-10.857c-.891 0-1.781.406-2.509 1.135-1.457 1.458-1.538 2.916-.162 4.375 3.075 3.24 11.331 5.185 12.626 4.942-.728-1.378-5.18-9.641-9.47-10.371-.081-.081-.243-.081-.485-.081z"/>
    <path fill="#F8F7FA" d="M525.687 335.005H25.819c-5.665 0-10.198-4.537-10.198-10.208V68.702c0-5.67 4.533-10.208 10.198-10.208h499.868c5.666 0 10.198 4.537 10.198 10.208v256.176c0 5.59-4.532 10.127-10.198 10.127z"/>
    <path fill="#FFE5AD" d="M346.088 230.25H67.502c-4.452 0-8.094-3.646-8.094-8.102V31.758c0-4.456 3.642-8.102 8.094-8.102h278.586c4.451 0 8.093 3.646 8.093 8.102v190.471c0 4.375-3.561 8.021-8.093 8.021z"/>
    <path fill="#FFF7E5" d="M154.267 230.574c-.323 0-.647-.243-.647-.648v-71.7h-50.748l-10.036 8.669v7.777c0 .324-.243.649-.647.649-.405 0-.648-.243-.648-.649v-8.101c0-.162.081-.324.243-.486l10.36-8.993c.081-.081.243-.162.404-.162h51.557c.324 0 .648.243.648.648v72.267c.081.405-.162.729-.486.729z"/>
    <path fill="#FFF7E5" d="M102.629 167.3h-10.36c-.324 0-.648-.243-.648-.648s.243-.648.648-.648h9.793v-8.426c0-.324.243-.648.647-.648.405 0 .648.243.648.648v8.993c-.081.486-.405.729-.728.729zM138.484 230.574c-.324 0-.647-.243-.647-.648v-54.605H87.089l-10.036 8.669v45.936c0 .324-.243.648-.648.648-.404 0-.647-.243-.647-.648v-46.261c0-.162.08-.324.243-.486l10.36-8.993c.08-.081.242-.162.404-.162h51.557c.324 0 .648.243.648.649v55.172c.081.405-.162.729-.486.729z"/>
    <path fill="#FFF7E5" d="M86.845 184.395h-10.36c-.323 0-.647-.243-.647-.649 0-.405.243-.648.647-.648h9.794v-8.425c0-.325.243-.649.647-.649.405 0 .648.243.648.649v8.992c-.081.406-.405.73-.729.73zM300.763 219.961c-19.182 0-34.722-15.636-34.722-34.756s15.621-34.757 34.722-34.757 34.722 15.637 34.722 34.757c0 19.12-15.54 34.756-34.722 34.756zm0-68.379c-18.454 0-33.508 15.07-33.508 33.542 0 18.471 15.054 33.541 33.508 33.541s33.508-15.07 33.508-33.541c0-18.472-14.973-33.542-33.508-33.542z"/>
    <path fill="#FFF7E5" d="M300.764 185.772c-.162 0-.324-.081-.405-.162l-24.281-23.981c-.081-.081-.162-.243-.162-.405 0-.162.081-.324.162-.405 11.979-12.072 24.281-10.371 24.767-10.371.323.081.485.325.485.568v34.189c0 .243-.162.486-.404.567h-.162zm-23.391-24.629l22.824 22.522v-32.163c-2.428-.081-12.788-.162-22.824 9.641z"/>
    <path fill="#FFF7E5" d="M334.918 185.772h-34.155c-.324 0-.648-.243-.648-.648s.243-.648.648-.648h34.155c.324 0 .648.243.648.648s-.324.648-.648.648z"/>
    <path fill="#FFF7E5" d="M321.16 213.156c-.162 0-.405-.081-.486-.243l-20.396-27.384c-.162-.243-.162-.648.162-.81.243-.162.648-.162.809.162l20.397 27.384c.162.243.162.648-.162.81-.081.081-.162.081-.324.081z"/>
    <path fill="#FFF7E5" d="M300.763 219.961c-.324 0-.648-.243-.648-.648v-68.298c0-.324.243-.648.648-.648.404 0 .647.243.647.648v68.298c0 .405-.324.648-.647.648zM82.638 71.62c-2.914 0-5.261-2.35-5.261-5.267 0-2.917 2.347-5.266 5.26-5.266 2.915 0 5.262 2.35 5.262 5.266 0 2.917-2.347 5.266-5.261 5.266zm0-9.318c-2.185 0-4.047 1.783-4.047 4.051 0 2.269 1.78 4.05 4.047 4.05 2.266 0 4.047-1.782 4.047-4.05 0-2.187-1.78-4.05-4.047-4.05zM180.573 67.001H98.745c-.324 0-.647-.243-.647-.648s.243-.648.647-.648h81.828c.323 0 .647.243.647.648s-.324.648-.647.648zM82.638 90.658c-2.914 0-5.261-2.35-5.261-5.266s2.347-5.266 5.26-5.266c2.915 0 5.262 2.35 5.262 5.266 0 2.917-2.347 5.266-5.261 5.266zm0-9.317c-2.185 0-4.047 1.783-4.047 4.051 0 2.269 1.78 4.05 4.047 4.05 2.266 0 4.047-1.781 4.047-4.05 0-2.187-1.78-4.05-4.047-4.05zM180.573 86.04H98.745c-.324 0-.647-.243-.647-.648s.243-.648.647-.648h81.828c.323 0 .647.243.647.648s-.324.648-.647.648zM82.638 109.697c-2.914 0-5.261-2.349-5.261-5.266 0-2.916 2.347-5.266 5.26-5.266 2.915 0 5.262 2.35 5.262 5.266 0 2.917-2.347 5.266-5.261 5.266zm0-9.236c-2.185 0-4.047 1.783-4.047 4.051 0 2.269 1.78 4.051 4.047 4.051 2.266 0 4.047-1.782 4.047-4.051 0-2.268-1.78-4.051-4.047-4.051zM180.573 105.079H98.745c-.324 0-.647-.243-.647-.648s.243-.648.647-.648h81.828c.323 0 .647.243.647.648s-.324.648-.647.648zM82.638 128.736c-2.914 0-5.261-2.349-5.261-5.266 0-2.916 2.347-5.266 5.26-5.266 2.915 0 5.262 2.35 5.262 5.266 0 2.917-2.347 5.266-5.261 5.266zm0-9.236c-2.185 0-4.047 1.783-4.047 4.051 0 2.269 1.78 4.051 4.047 4.051 2.266 0 4.047-1.782 4.047-4.051 0-2.268-1.78-4.051-4.047-4.051zM180.573 124.119H98.745c-.324 0-.647-.244-.647-.649s.243-.648.647-.648h81.828c.323 0 .647.243.647.648s-.324.649-.647.649zM349.002 43.182H63.698c-.324 0-.647-.243-.647-.648s.243-.648.647-.648h285.223c.324 0 .647.243.647.648s-.242.648-.566.648zM246.778 90.82h-41.44c-3.723 0-6.799-3.078-6.799-6.805V70.16c0-3.727 3.076-6.806 6.799-6.806h41.44c3.723 0 6.798 3.08 6.798 6.806v13.854c0 3.727-2.994 6.805-6.798 6.805zm-41.359-26.25c-3.076 0-5.585 2.512-5.585 5.59v13.855c0 3.079 2.509 5.59 5.585 5.59h41.44c3.075 0 5.584-2.511 5.584-5.59V70.16c0-3.079-2.509-5.59-5.584-5.59h-41.44z"/>
    <path fill="#FFF7E5" d="M230.834 74.617H209.79c-.324 0-.647-.243-.647-.649 0-.405.242-.648.647-.648h21.044c.323 0 .647.243.647.648 0 .406-.243.649-.647.649zM242.408 80.774H209.79c-.324 0-.647-.243-.647-.648s.242-.648.647-.648h32.618c.324 0 .647.243.647.648s-.243.648-.647.648zM246.778 125.09h-41.44c-3.723 0-6.799-3.079-6.799-6.806V104.43c0-3.726 3.076-6.805 6.799-6.805h41.44c3.723 0 6.798 3.079 6.798 6.805v13.854c0 3.727-2.994 6.806-6.798 6.806zm-41.359-26.25c-3.076 0-5.585 2.512-5.585 5.59v13.854c0 3.079 2.509 5.591 5.585 5.591h41.44c3.075 0 5.584-2.512 5.584-5.591V104.43c0-3.078-2.509-5.59-5.584-5.59h-41.44z"/>
    <path fill="#FFF7E5" d="M230.834 108.887H209.79c-.324 0-.647-.243-.647-.648s.242-.648.647-.648h21.044c.323 0 .647.243.647.648s-.243.648-.647.648zM242.408 115.044H209.79c-.324 0-.647-.243-.647-.648s.242-.648.647-.648h32.618c.324 0 .647.243.647.648s-.243.648-.647.648zM286.679 127.601h-10.522c-.567 0-.971-.405-.971-.972v-17.662c0-.567.404-.972.971-.972h10.522c.566 0 .971.405.971.972v17.662c-.081.567-.486.972-.971.972zm-10.279-1.215h10.036V109.21H276.4v17.176zM310.636 127.601h-13.678c-.567 0-.972-.405-.972-.972V85.553c0-.567.405-.972.972-.972h13.678c.567 0 .971.405.971.972v41.076c-.081.567-.485.972-.971.972zm-13.517-1.215h13.193v-40.59h-13.193v40.59zM332.246 127.035h-12.383c-.162 0-.324-.162-.324-.324V71.619c0-.162.162-.324.324-.324h12.383c.162 0 .324.162.324.324v55.011c.081.243-.081.405-.324.405z"/>
    <path fill="#FFF7E5" d="M332.247 127.601h-12.383c-.567 0-.971-.405-.971-.972v-55.01c0-.567.404-.972.971-.972h12.383c.567 0 .972.405.972.972v55.01c0 .567-.405.972-.972.972zm-12.059-1.215h11.897V71.943h-11.897v54.443zM273.729 94.79c-.162 0-.404-.082-.485-.244-.162-.243-.162-.648.081-.891l49.857-37.754c.243-.162.647-.162.89.081.162.243.162.648-.081.891l-49.776 37.835c-.162.081-.324.081-.486.081z"/>
    <path fill="#FFF7E5" d="M319.7 52.58l8.661-.891c.647-.081 1.052.648.728 1.215l-4.452 7.697c-.323.486-1.052.567-1.375 0l-4.209-6.887c-.324-.405 0-1.053.647-1.134z"/>
    <path fill="#FFF7E5" d="M323.992 61.654c-.486 0-.891-.243-1.215-.648l-4.208-6.887c-.243-.405-.243-.89-.081-1.377.243-.405.647-.73 1.133-.81l8.66-.891c.486-.081 1.052.162 1.295.648.324.405.324.972 0 1.458l-4.451 7.697c-.162.486-.648.81-1.133.81zm-4.29-8.426c-.081 0-.162.081-.162.081v.162l4.209 6.887c.081.08.081.08.162.08 0 0 .081 0 .161-.08l4.452-7.697c.081-.08 0-.162 0-.162 0-.081-.081-.081-.162-.081l-8.66.81z"/>
    <path fill="#F8F7FA" d="M598.61 343.025H289.916v32.65H598.61v-32.65z"/>
    <path fill="#4A398D" d="M458.348 101.109h-75.514c-11.736 0-18.859 11.262-16.35 22.766 5.585 25.521 11.008 103.864 11.008 103.864h59.084l21.772-126.63z"/>
    <path fill="#1F2F49" d="M415.936 261.766l-33.103-58.9-13.517-9.479.324-.486 13.679 9.641 33.184 58.981-.567.243z"/>
    <path fill="#4A398D" d="M474.777 101.919h75.515c11.736 0 18.858 11.261 16.349 22.766-5.585 25.52-11.007 103.864-11.007 103.864h-59.085l-21.772-126.63z"/>
    <path fill="#FEB18A" d="M559.518 277.564c2.428-5.347 7.689-64.328 7.041-72.024-.89-11.019-7.041-36.458-7.041-36.458l-34.884 3.322 4.289 37.511 12.627 63.193-9.875 4.294c-1.457.324-2.752 1.296-3.48 2.673-1.781 3.241-4.937 9.236-4.937 9.965 0 0 .405 1.297 3.966.568 2.347-.487 5.503-3.808 6.637-4.699 1.133-.973 2.104-1.459 2.185-.081 0 0-4.614 16.527-11.008 16.527-.566 0-.647 1.701 1.7 4.78.324.405 3.723 1.296 7.527.243 14.002-3.889 16.835-5.185 16.835-5.185l8.418-24.629zM348.111 204.811c11.574 20.173 52.042 68.135 52.042 68.135l7.204 10.938c2.185 3.321 6.556 4.374 9.955 2.43l11.331-6.4s6.151 7.21 8.256 10.127c1.699 2.268 4.613.972 3.966-.972-.648-2.026-4.856-11.181-8.903-16.609-.891-1.134 2.104-3.646.162-5.347-1.376-1.215-6.961-6.481-9.389-8.183-1.457-1.053-3.319-1.377-5.018-.972l-4.209 1.053-30.513-56.144 10.764-27.951s-22.905-5.023-33.427-13.368l-13.031 33.703c-1.214 2.998-.89 6.562.81 9.56z"/>
    <path fill="#CDE1FB" d="M501.486 375.676H343.092c-4.452 0-8.094-3.646-8.094-8.102V213.642c0-4.456 3.642-8.102 8.094-8.102h249.286c4.452 0 8.094 3.646 8.094 8.102v153.932c0 4.456-3.642 8.102-8.094 8.102h-90.892z"/>
    <path fill="#fff" d="M590.194 218.665H352.562v.81h237.632v-.81zM585.499 357.042H444.264v.81h141.235v-.81zM529.571 310.862H397.887v.81h131.684v-.81zM529.571 322.69H397.887v.811h131.684v-.811zM529.571 334.438H397.887v.811h131.684v-.811zM527.225 295.631H353.777c-1.7 0-3.076-1.378-3.076-3.079v-61.816c0-1.701 1.376-3.079 3.076-3.079h173.448c1.7 0 3.076 1.378 3.076 3.079v61.816c0 1.701-1.376 3.079-3.076 3.079zm-173.448-67.164c-1.214 0-2.266 1.054-2.266 2.269v61.816c0 1.215 1.052 2.268 2.266 2.268h173.448c1.214 0 2.266-1.053 2.266-2.268v-61.816c0-1.215-1.052-2.269-2.266-2.269H353.777zM582.262 257.309h-39.093c-1.376 0-2.509-1.134-2.509-2.511v-24.629c0-1.378 1.133-2.512 2.509-2.512h39.093c1.376 0 2.509 1.134 2.509 2.512v24.629c0 1.377-1.133 2.511-2.509 2.511zm-39.093-28.842c-.971 0-1.699.73-1.699 1.702v24.629c0 .972.728 1.701 1.699 1.701h39.093c.971 0 1.7-.729 1.7-1.701v-24.629c0-.972-.729-1.702-1.7-1.702h-39.093zM582.262 298.71h-39.093c-1.376 0-2.509-1.134-2.509-2.512v-24.629c0-1.377 1.133-2.511 2.509-2.511h39.093c1.376 0 2.509 1.134 2.509 2.511v24.629c0 1.378-1.133 2.512-2.509 2.512zm-39.093-28.842c-.971 0-1.699.729-1.699 1.701v24.629c0 .973.728 1.702 1.699 1.702h39.093c.971 0 1.7-.729 1.7-1.702v-24.629c0-.972-.729-1.701-1.7-1.701h-39.093zM582.262 340.028h-39.093c-1.376 0-2.509-1.134-2.509-2.511v-24.629c0-1.378 1.133-2.512 2.509-2.512h39.093c1.376 0 2.509 1.134 2.509 2.512v24.629c0 1.377-1.133 2.511-2.509 2.511zm-39.093-28.761c-.971 0-1.699.729-1.699 1.702v24.629c0 .972.728 1.701 1.699 1.701h39.093c.971 0 1.7-.729 1.7-1.701v-24.629c0-.973-.729-1.702-1.7-1.702h-39.093z"/>
    <path fill="#BCBEC0" d="M569.959 205.783h-.404c0-.162.081-13.854 3.642-30.058 3.318-14.988 10.36-35.242 25.333-46.746l.243.324c-14.812 11.423-21.853 31.596-25.171 46.503-3.562 16.123-3.643 29.815-3.643 29.977z"/>
    <path fill="#BCBEC0" d="M590.84 136.675c-1.537 0-7.608-3.321-9.307-6.238-.891-1.62-.567-2.917 1.052-3.97.971-.648 1.942-.729 2.914-.324 3.642 1.539 5.584 9.884 5.665 10.208v.162l-.162.081c0 .081-.081.081-.162.081zm-6.475-10.37c-.485 0-1.052.162-1.537.486-1.376.81-1.7 1.864-.972 3.16 1.538 3.079 7.689 6.238 8.984 6.319-.323-1.296-2.266-8.426-5.422-9.722-.405-.162-.729-.243-1.053-.243zM584.286 146.155c-1.538 0-7.608-3.322-9.308-6.238-.89-1.621-.567-2.917 1.052-3.889.971-.648 1.943-.729 2.914-.324 3.642 1.539 5.585 9.884 5.665 10.208v.162l-.161.081h-.162zm-6.475-10.37c-.486 0-1.052.162-1.538.486-1.376.81-1.7 1.863-.971 3.159 1.537 3.079 7.689 6.239 8.984 6.32-.324-1.296-2.266-8.426-5.423-9.722-.405-.162-.728-.243-1.052-.243zM579.104 156.443c-2.024 0-7.851-2.025-9.955-4.374-1.214-1.378-1.134-2.755.242-4.051.891-.811 1.781-1.054 2.833-.892 3.885.811 7.365 8.669 7.527 8.993l.081.162-.081.081c-.162.081-.404.081-.647.081zm-7.527-8.992c-.648 0-1.295.243-1.943.81-1.133 1.053-1.295 2.187-.405 3.321 2.105 2.674 8.742 4.618 9.956 4.456-.567-1.215-3.804-7.858-7.123-8.506-.162-.081-.323-.081-.485-.081zM574.411 167.462c-2.509 0-7.528-1.053-9.713-2.836-1.376-1.215-1.538-2.592-.405-4.05.729-.892 1.619-1.378 2.671-1.297 3.966.162 8.661 7.373 8.823 7.697l.08.162-.08.081c-.162.162-.648.243-1.376.243zm-7.528-7.778c-.809 0-1.537.405-2.185 1.135-.971 1.215-.971 2.349.162 3.321 2.509 2.35 9.389 3.241 10.522 2.836-.729-1.134-5.018-7.13-8.418-7.373 0 .081-.081.081-.081.081zM571.012 179.29c-2.59 0-7.204-.81-9.308-2.349-1.457-1.134-1.7-2.512-.567-4.051.648-.972 1.538-1.458 2.59-1.458 3.966 0 8.984 6.967 9.227 7.21l.081.162-.081.081c-.243.324-.971.405-1.942.405zm-7.285-7.372c-.89 0-1.618.405-2.266 1.296-.89 1.296-.809 2.35.324 3.322 2.671 2.187 9.55 2.754 10.684 2.268-.81-1.134-5.342-6.886-8.742-6.886zM568.663 191.767c-2.671 0-6.961-.648-8.984-2.187-1.457-1.054-1.7-2.431-.648-3.97.648-.973 1.538-1.459 2.51-1.459h.08c3.966 0 9.065 6.725 9.308 7.049l.081.162-.081.162c-.162.162-1.052.243-2.266.243zm-7.042-7.211c-.971 0-1.699.487-2.266 1.297-.89 1.296-.728 2.349.405 3.321 2.671 2.188 9.631 2.512 10.765 2.026-.891-.972-5.504-6.644-8.904-6.644zM567.854 202.299c-2.671 0-6.96-.648-8.984-2.188-1.456-1.053-1.699-2.43-.647-3.969.647-.973 1.538-1.459 2.509-1.459 3.966-.081 9.146 6.725 9.389 7.049l.081.162-.081.162c-.162.081-1.053.243-2.267.243zm-7.041-7.211c-.971 0-1.7.487-2.266 1.297-.891 1.296-.729 2.349.404 3.321 2.671 2.188 9.632 2.512 10.765 2.026-.89-1.053-5.504-6.644-8.903-6.644z"/>
    <path fill="#BCBEC0" d="M575.867 203.19c-2.995 0-6.071-.567-6.313-1.134l-.081-.162.081-.081c.242-.243 6.636-5.995 10.521-5.185 1.053.243 1.781.891 2.267 1.944.728 1.702.242 2.998-1.376 3.808-1.295.567-3.157.81-5.099.81zm-5.828-1.215c1.052.648 7.932 1.62 10.927 0 1.295-.729 1.618-1.701.971-3.16-.405-.972-1.052-1.539-1.943-1.701-3.237-.81-8.903 3.97-9.955 4.861zM577.647 192.983c-3.156 0-6.475-.648-6.799-1.296l-.08-.163.08-.081c.243-.243 6.799-5.833 10.603-4.942.971.243 1.781.892 2.185 1.945.729 1.701.162 2.997-1.456 3.808-1.133.486-2.833.729-4.533.729zm-6.313-1.377c1.052.648 7.851 1.782 10.927.162 1.295-.649 1.699-1.702 1.052-3.16-.405-.972-1.052-1.539-1.943-1.782-3.237-.73-8.984 3.888-10.036 4.78zM581.856 181.397c-3.723 0-8.741-1.621-8.984-2.431l-.081-.162.162-.081c.324-.162 7.527-4.861 11.169-3.403.971.405 1.619 1.135 1.862 2.269.485 1.782-.243 2.997-2.024 3.565-.566.243-1.295.243-2.104.243zm-8.498-2.431c.89.81 7.527 2.836 10.764 1.782 1.376-.486 1.862-1.458 1.538-2.997-.243-.972-.809-1.702-1.619-2.026-3.156-1.215-9.55 2.512-10.683 3.241zM584.042 169.082c-3.642 0-8.337-1.377-8.66-2.188l-.081-.162.162-.081c.323-.243 7.365-5.023 11.088-3.726.971.324 1.619 1.053 1.943 2.187.485 1.782-.162 3.079-1.862 3.565-.647.324-1.538.405-2.59.405zm-8.094-2.188c.972.811 7.608 2.593 10.846 1.378 1.376-.486 1.862-1.54 1.376-2.998-.324-.972-.81-1.62-1.7-1.944-3.156-1.134-9.389 2.835-10.522 3.564zM589.384 160.414c-3.723 0-9.874-3.079-10.036-4.051v-.162l.162-.081c.323-.162 8.255-3.484 11.574-1.459.89.567 1.375 1.378 1.456 2.593.162 1.863-.728 2.916-2.59 3.16h-.566zm-9.551-4.051c.81.972 6.961 4.051 10.36 3.564 1.457-.243 2.105-1.134 1.943-2.673-.081-1.053-.486-1.783-1.295-2.269-2.833-1.782-9.713.892-11.008 1.378zM593.512 148.747c-3.723 0-9.065-1.864-9.308-2.755l-.081-.162.162-.081c.324-.162 7.689-4.618 11.331-3.078.971.405 1.538 1.215 1.781 2.349.404 1.782-.324 2.998-2.105 3.484-.485.162-1.133.243-1.78.243zm-8.822-2.674c.89.81 7.446 3.079 10.764 2.026 1.376-.405 1.943-1.378 1.619-2.917-.243-1.053-.728-1.701-1.619-2.025-3.156-1.378-9.55 2.187-10.764 2.916zM600.068 139.187c-3.723 0-9.065-1.863-9.307-2.754l-.081-.162.162-.081c.323-.162 7.689-4.618 11.331-3.079.971.405 1.538 1.215 1.78 2.349.405 1.783-.323 2.998-2.104 3.484-.486.243-1.133.243-1.781.243zm-8.822-2.673c.891.81 7.446 3.078 10.765 2.025 1.376-.405 1.942-1.377 1.619-2.917-.243-1.053-.729-1.701-1.619-2.025-3.157-1.377-9.551 2.269-10.765 2.917zM598.773 129.303h-.162l-.162-.081v-.162c.081-.324 1.376-8.831 4.856-10.613.891-.486 1.943-.405 2.914.081 1.619.891 2.104 2.187 1.295 3.808-1.376 3.078-7.365 6.967-8.741 6.967zm5.908-10.856c-.404 0-.809.081-1.133.324-2.994 1.539-4.37 8.831-4.613 10.127 1.214-.162 7.122-3.808 8.417-6.968.567-1.377.162-2.349-1.214-3.078-.485-.243-.971-.405-1.457-.405z"/>
    <path fill="#B4D1F8" d="M440.461 276.511c-7.851 0-14.164-6.563-14.164-14.583 0-8.021 6.394-14.583 14.164-14.583s14.164 6.562 14.164 14.583c0 8.02-6.313 14.583-14.164 14.583zm0-28.356c-7.365 0-13.355 6.157-13.355 13.773 0 7.615 5.99 13.773 13.355 13.773s13.355-6.158 13.355-13.773c0-7.616-5.99-13.773-13.355-13.773z"/>
    <path fill="#B4D1F8" d="M436.656 257.553v10.451c0 .567.567.891.972.648l8.417-5.266c.405-.243.405-.972 0-1.215l-8.417-5.266c-.405-.243-.972.162-.972.648z"/>
    <path fill="#4A398D" d="M116.388 249.127H87.736c-11.735 0-20.072 11.585-16.349 22.766l34.965 103.864h35.208l-25.172-126.63z"/>
    <path fill="#FEB18A" d="M490.235 53.795s9.956-5.671 10.037 8.426c.081 8.83-9.956 10.856-13.841 8.669-1.376-.73-1.052.486-1.052.486-1.133 9.397-8.336 25.844-25.009 25.844-23.877 0-28.976-26.25-28.976-28.032 1.781.891-13.031 3.727-13.84-7.048-.567-7.373 4.289-9.236 4.289-9.236s-1.456-35.08 21.854-38.646c23.309-3.564 32.779-10.694 37.554 0 4.776 10.695 8.984 39.537 8.984 39.537z"/>
    <path fill="#1F2F49" d="M421.845 52.985l.162-17.5.162-2.025c.242-1.216-4.533-13.206 4.451-22.604 3.076-3.16 11.088-6.32 16.268-7.94 12.789-4.05 30.352-2.916 35.37-1.863 2.752.567 2.428 1.377 1.942 1.782-.89.891-3.48 2.35-3.075 2.35 4.128.162 6.232.891 9.227 2.43 1.699.891 5.422 6.077 5.746 7.94 1.052 5.752 1.538 15.88 1.538 19.444v17.58c0 .325-2.185.244-4.128 2.27-2.671 2.835-1.942 5.913-2.913 8.749.161-.81.89-14.34.161-22.766-.485-5.266-5.341-21.064-6.717-19.93 0 0-9.227 3.727-23.715 4.375-6.88.324-18.454-2.836-20.396-3.565-1.052-.405-5.828 12.477-5.828 19.768 0 7.94 1.376 16.447 1.053 16.447-.324 0-.648-3.079-2.59-4.132-4.047-2.107-6.718-.81-6.718-.81z"/>
    <path fill="#FEB18A" d="M478.582 89.361l1.133 11.262c-1.214.81 12.545-.243 11.898 3.24-1.134 5.591-22.744 39.699-25.496 40.266-3.723.81-14.649-19.201-18.453-19.039-8.903.162-14.569-20.66-17.078-23.414l10.926-.972 2.024-8.183 35.046-3.16z"/>
    <path fill="#1F2F49" d="M436.656 101.109s-8.579.324-16.268 1.378c-25.091 3.321-34.884 9.155-42.654 23.09l-19.83 33.946s8.903 9.074 37.07 15.474c1.456.891 1.214-18.877 1.214-18.877l-.162 30.786 132.413-.405-3.885-14.016-15.378.892s40.226-1.783 53.499-5.105c0 0-9.065-32.811-17.077-46.503-4.857-8.264-16.269-13.773-32.132-17.014-5.342-1.053-14.731-2.187-26.386-3.322 0 0-2.428 19.282-22.339 20.66-.728.081-1.214 12.881-2.023 12.881-.648 0-5.018-13.529-5.585-13.529-19.587-1.216-20.477-20.336-20.477-20.336z"/>
    <path fill="#231F20" d="M459.157 87.498c-6.556 0-9.308-4.456-9.308-4.456-.081-.162-.081-.405.162-.567.162-.08.405-.08.567.162.162.243 3.561 5.59 12.059 3.727.243-.081.405.081.486.324.081.243-.081.405-.324.486-1.376.243-2.509.324-3.642.324z"/>
    <path fill="#F36C4D" d="M442.889 91.063l-1.295 9.56s30.513 2.755 36.179-10.613l-3.319 1.782s-25.981 1.864-31.565-.729z"/>
    <path fill="#FFD77F" d="M396.35 186.42c-.243 0-.405-.162-.405-.405l-.324-32.326c0-.243.162-.405.405-.405.243 0 .404.162.404.405l.324 32.326c0 .243-.243.405-.404.405z"/>
    <path fill="#1F2F49" d="M444.344 73.725s2.914-8.668 5.909-8.75c8.336-.323 19.344-.89 20.963-.485 2.832.648 4.046 8.02 4.613 8.263.405.162 4.29-1.053 7.608-6.562 1.538-2.512 4.371-11.586 4.371-11.586L486.513 76.4s-5.099 13.206-11.574 17.095c-4.695 2.754-26.386 2.997-29.542.08-4.938-4.617-12.384-13.448-13.193-17.337-.081-.567-1.214-9.722-.971-13.287.242-3.403-.162-6.562-.162-6.805-.081-.405.323-1.297 1.214 1.458 1.052 3.484 2.752 11.018 6.151 13.206 3.399 2.106 5.908 2.916 5.908 2.916z"/>
    <path fill="#27AE60" d="M441.756 100.056s-1.781-.81-1.7 0c.486 3.564 4.695 14.421 16.35 15.555 0 0-10.279 15.393-18.13 14.826 0 0-3.481-5.995-7.932-29.085 0 0 8.013-6.806 8.579-6.562.971.405 1.862 1.7 1.862 1.7l.971 3.566z"/>
    <path fill="#1C7F44" d="M467.251 114.64s-1.619.972-2.509 5.185c-.486 2.268-1.053 9.155-1.053 9.155l9.227-9.155-5.665-5.185zM456.405 115.611s1.862 10.371 4.29 14.34c-2.186.486-11.412-2.997-11.898-5.266.89.324 6.556-7.939 7.608-9.074zM481.09 101.109s1.78-5.995 1.376-6.157c.081 0-.486-.567-1.376-.891-1.457-.405-2.024 0-2.024 0l.567 5.347s-.081.486.162 1.215c.162.729 1.295.486 1.295.486zM440.217 100.786s-1.699-5.833-1.214-5.995c-.081 0 .243-.324 1.214-.567 1.457-.405 2.348 0 2.348 0s-.486 5.671-.648 6.4l-1.7.162z"/>
    <path fill="#FFD77F" d="M527.064 181.559c-.162 0-.324-.081-.405-.324l-9.794-34.432c-.081-.243.081-.406.243-.487.243-.081.405.081.486.244l9.793 34.432c.081.243-.081.405-.243.486 0 .081-.08.081-.08.081z"/>
    <path fill="#E4E9FF" d="M399.507 205.54l-12.869-57.846c-.891-4.132 2.266-7.94 6.394-7.94h146.739c4.451 0 7.608 4.375 6.232 8.588l-17.725 57.198H399.507z"/>
    <path fill="#F1F2F2" d="M432.771 370.247l44.191-86.688c1.538-3.159-.728-6.805-4.209-6.805h-107.97c-1.861 0-3.48 1.053-4.289 2.673l-41.359 84.501 65.154 6.319h48.482z"/>
    <path fill="#FEB18A" d="M450.173 78.424c-.162-.405 1.214-4.942 2.186-5.671 1.699-1.296 17.32-.73 17.32-.73s3.157 5.591 3.076 6.24c-.081.566-1.376 2.673-4.695 3.078-2.752.324-2.509-.891-7.365-.73-1.619.082-4.047 1.135-5.585 1.054-2.104-.243-4.37-1.458-4.937-3.24z"/>
    <path fill="#DD743A" d="M460.856 78.586c-.486 0-1.052 0-1.538-.08-2.185-.244-5.099-1.216-6.718-4.214-.242-.405-.081-.89.324-1.134.405-.243.89-.08 1.133.324 1.295 2.43 3.723 3.16 5.504 3.403 2.995.324 6.07-.567 7.122-1.701.324-.325.81-.325 1.134 0 .323.324.323.81 0 1.134-1.214 1.377-4.128 2.268-6.961 2.268z"/>
    <path fill="#27AE60" d="M516.866 139.754c-.648-12.801 1.942-17.014 2.023-17.176l.647.405c0 .081-2.509 4.213-1.861 16.69l-.809.081zM410.918 139.997l-.648-.567c3.966-4.537-1.295-17.419-1.375-17.581l.728-.324c.324.649 5.585 13.611 1.295 18.472zM467.249 114.638s-1.214 8.102 7.851 12.801c0 0 10.927-9.317 15.702-25.682l-8.255-6.806c-.081 0-.486 14.421-15.298 19.687zM582.263 43.424h-.81V29.57h-16.106V13.934h-16.673v-.81h17.482V28.76h16.107v14.664z"/>
    <path fill="#1F2F49" d="M315.652 336.687l-.271.498 13.066 7.15.271-.498-13.066-7.15z"/>
    <path fill="#FEB18A" d="M235.123 161.305c-16.915 2.592 8.418.648 15.864 16.527 2.347 5.104 2.347-4.78 1.214 2.107-4.694 35.647-28.085 64.003-35.936 61.735-11.655-3.403-15.702-9.885-15.702-9.885l-5.342 34.838s-16.106-2.431-25.414-9.965c-8.822-7.13-10.846-19.444-11.817-20.336 0 0 13.031-32.649 15.621-44.397 4.694-20.659 61.512-30.624 61.512-30.624z"/>
    <path fill="#F4A07A" d="M224.439 337.678l83.932-2.673s24.929-7.535 29.056-5.023c5.18 3.159 18.373 16.851 18.373 16.851.971 1.135-3.966 2.755-6.07 1.297-2.347-1.702-19.749-14.016-19.425-16.528 0 0 21.044 18.31 14.164 18.715-14.65.81-60.298-9.317-60.298-9.317l-59.246-.81-10.765-16.933 13.598-5.266-3.319 19.687z"/>
    <path fill="#27AE60" d="M123.51 311.024l13.354 64.652h83.932l2.833-31.435-11.817-1.62s32.132 6.238 44.92-3.889l-40.064 2.673s20.639-11.261 16.754-30.462c-1.861-9.236-31.403-45.289-37.069-51.932-.162-.162-39.497-8.426-24.2-38.726 3.318-6.562-5.342-5.752-7.042-4.537-8.417 6.076-41.601 95.276-41.601 95.276z"/>
    <path fill="#FEB18A" d="M206.713 311.105l16.592 30.382s74.948-1.783 80.614-2.512l22.5-3.24c4.209-.648 8.499 1.053 11.169 4.294 3.966 4.78 9.389 11.504 11.655 14.502.891 1.215.405 3.078-1.295 3.24-1.052.081-3.48-1.458-3.48-1.458-3.723-2.593-12.707-11.18-12.869-11.261-1.376-.649-2.185-.405-1.214.486.486.486 16.673 12.638 15.054 14.664-4.613 5.833-18.615-9.317-18.939-8.669-.486.81.081-.81-.243 0-.404 1.053 15.297 11.909 12.626 13.449-4.127 2.268-18.858-7.292-18.858-7.292-2.509 1.459-7.527 1.378-12.464.81-6.232-.729-12.384-2.106-13.193-2.106-8.741.405-59.084 15.231-72.843 12.963-13.517-2.269-38.931-47.719-38.931-47.719l24.119-10.533z"/>
    <path fill="#1F2F49" d="M243.297 167.543s9.227 22.604 6.961 16.528c-.648-1.621 9.955-11.667 1.295-27.627-10.522-19.282-38.769-19.282-55.037-12.558 0 0-1.295-8.507-9.632-12.314-4.532-2.026-22.581.162-24.686 16.689-1.295 10.451 1.619 18.796 11.089 21.551 0 0-12.788 18.39-33.832 29.409-35.936 18.877-23.958 58.737-22.096 60.844 1.295 1.458-16.592 1.539-17.806 26.492-2.428 52.661 30.756 57.441 30.756 57.441s-.809-3.078-.162-15.312c2.023-36.215 5.747-74.131 38.607-98.436l3.723-2.835c11.493-5.509 13.921-16.123 13.921-16.123s-6.07-1.944-9.307-7.939c-2.105-3.97-.243-10.938 2.832-14.016 9.551-9.398 19.263 1.863 19.263 1.863s-2.994 11.261-1.133 9.722c.891-.729 4.614-2.835 8.337-9.074.081-.081 26.062.729 36.907-24.305z"/>
    <path fill="#B4D1F8" d="M562.674 249.127c-3.48 0-6.313-2.917-6.313-6.482 0-3.564 2.833-6.481 6.313-6.481 3.481 0 6.313 2.917 6.313 6.481 0 3.565-2.832 6.482-6.313 6.482zm0-12.234c-3.075 0-5.503 2.593-5.503 5.671 0 3.16 2.509 5.672 5.503 5.672 2.995 0 5.504-2.593 5.504-5.672 0-3.078-2.428-5.671-5.504-5.671z"/>
    <path fill="#B4D1F8" d="M561.057 240.701v4.456c0 .243.242.405.404.243l3.643-2.269c.161-.081.161-.405 0-.567l-3.643-2.268c-.162.081-.404.162-.404.405zM562.674 290.446c-3.48 0-6.313-2.916-6.313-6.481s2.833-6.482 6.313-6.482c3.481 0 6.313 2.917 6.313 6.482 0 3.565-2.832 6.481-6.313 6.481zm0-12.152c-3.075 0-5.503 2.592-5.503 5.671 0 3.159 2.509 5.671 5.503 5.671 2.995 0 5.504-2.593 5.504-5.671 0-3.16-2.428-5.671-5.504-5.671z"/>
    <path fill="#B4D1F8" d="M561.057 282.101v4.456c0 .243.242.405.404.243l3.643-2.268c.161-.081.161-.405 0-.567l-3.643-2.269c-.162 0-.404.162-.404.405zM562.674 331.845c-3.48 0-6.313-2.916-6.313-6.481s2.833-6.481 6.313-6.481c3.481 0 6.313 2.916 6.313 6.481s-2.832 6.481-6.313 6.481zm0-12.152c-3.075 0-5.503 2.593-5.503 5.671 0 3.16 2.509 5.671 5.503 5.671 2.995 0 5.504-2.592 5.504-5.671 0-3.16-2.428-5.671-5.504-5.671z"/>
    <path fill="#B4D1F8" d="M561.057 323.501v4.456c0 .243.242.405.404.243l3.643-2.269c.161-.081.161-.405 0-.567l-3.643-2.268c-.162 0-.404.162-.404.405z"/>
    <path fill="#7DCEA0" d="M569.636 81.26c3.531 0 6.394-2.866 6.394-6.4 0-3.535-2.863-6.401-6.394-6.401s-6.394 2.865-6.394 6.4 2.863 6.4 6.394 6.4z"/>
    <path fill="#FFE5AD" d="M47.914 339.785c5.588 0 10.117-4.534 10.117-10.127 0-5.593-4.53-10.127-10.117-10.127-5.587 0-10.117 4.534-10.117 10.127 0 5.593 4.53 10.127 10.117 10.127z"/>
    <path fill="#fff" d="M194.105 186.682l-.308.75 31.648 13.074.308-.749-31.648-13.075z"/>
    <path fill="#F36C4D" d="M196.272 259.011l-1.376-35.729s.729 2.512 2.914 5.185c.971 1.135 1.457 2.026 2.833 3.322l-4.371 27.222z"/>
    <path fill="#1D8348" d="M166.326 286.719s4.937 70.323 17.24 79.801c10.279 7.94 37.474 7.94 37.474 7.94l.404-3.322-29.623-5.509-25.495-78.91z"/>
    <path fill="#7DCEA0" d="M186.965 361.092c3.238 4.537 4.209 7.292 49.372 10.775 2.671.244 29.38.406 27.033-1.863-1.7-1.62-.81-30.3 3.237-33.622 2.509-2.106-43.625-1.296-40.792-3.727 0 0-21.529-63.922-29.461-73.725-10.36-12.72-30.028-7.292-30.028 17.904 0 35 14.893 76.238 20.639 84.258z"/>
    <path fill="#27AE60" d="M247.748 372.11c-2.023-6.724-2.59-14.016-1.699-21.712.242-1.864.566-3.808.971-5.671l.809.162c-.404 1.863-.728 3.726-.971 5.59-.89 7.534-.324 14.745 1.7 21.388l-.81.243zM249.044 339.947l-.81-.243c1.053-3.564 2.024-5.59 2.105-5.671l.728.324c0 .081-.971 2.188-2.023 5.59z"/>
    <path fill="#DD743A" d="M226.786 233.167h-.243c-2.185-.405-7.204-1.377-9.389-9.074-.081-.405.162-.891.567-.972.404-.081.89.162.971.567 1.862 6.725 6.07 7.535 8.094 7.94h.081c.404.081.728.486.647.972 0 .324-.324.567-.728.567z"/>
    <path fill="#020202" d="M455.758 59.547c.971.567 2.104.972 3.237 1.134 2.186.324 4.29-.162 5.909-1.782.405-.405-.162-.972-.567-.567-1.457 1.458-3.48 1.863-5.423 1.54-.971-.163-1.942-.487-2.751-.973-.405-.324-.891.405-.405.648z"/>
    <path fill="#1F2F49" d="M234.314 191.038c2.266-1.945 5.261-1.54 7.689-.243.89.486 1.781-.892.809-1.378-1.618-.81-3.399-1.377-5.18-1.296-1.699.081-3.156.729-4.451 1.863-.81.567.324 1.702 1.133 1.054z"/>
    <path fill="#222434" d="M237.461 206.705c.284-1.948-.561-3.685-1.888-3.88-1.327-.195-2.633 1.227-2.918 3.175-.284 1.948.561 3.685 1.888 3.88 1.327.194 2.633-1.227 2.918-3.175z"/>
    <path fill="#DD743A" d="M232.857 226.199c-.648 0-1.214-.243-1.7-.567-1.699-1.377-3.156-3.079-4.37-5.104-.081-.162-.081-.405.162-.567.161-.081.404-.081.566.162 1.133 1.944 2.59 3.646 4.209 4.942.485.405 1.133.567 1.78.324.648-.162 1.134-.648 1.376-1.296l4.533-12.882c.081-.243.324-.324.486-.243.242.081.323.324.242.486l-4.532 12.882c-.324.891-.971 1.539-1.862 1.782-.323 0-.647.081-.89.081z"/>
    <path fill="#fff" d="M235.77 220.609c-7.041 0-12.788-5.752-12.788-12.8 0-7.049 5.747-12.801 12.788-12.801 7.042 0 12.789 5.752 12.789 12.801 0 7.048-5.747 12.8-12.789 12.8zm0-24.872c-6.636 0-11.978 5.428-11.978 11.99 0 6.563 5.423 11.991 11.978 11.991 6.556 0 11.979-5.428 11.979-11.991 0-6.562-5.342-11.99-11.979-11.99z"/>
    <path fill="#2D2828" d="M469.436 40.994c1.7-.405 3.48-.648 5.261-.486 1.376.162 2.752.567 4.128.972.971.325 1.457-1.215.404-1.539-1.456-.486-2.994-.891-4.532-1.053-1.943-.162-3.804.08-5.666.567-1.052.243-.647 1.782.405 1.54z"/>
    <path fill="#222434" d="M473.726 51.688c1.475 0 2.671-1.378 2.671-3.078s-1.196-3.079-2.671-3.079c-1.476 0-2.671 1.379-2.671 3.079 0 1.7 1.195 3.078 2.671 3.078z"/>
    <path fill="#2D2828" d="M450.415 39.374c-1.861-.486-3.804-.73-5.666-.567-1.537.162-3.075.567-4.532 1.053-.971.324-.567 1.863.405 1.54 1.376-.406 2.752-.81 4.127-.973 1.781-.162 3.562.081 5.261.486.972.324 1.376-1.215.405-1.54z"/>
    <path fill="#222434" d="M446.044 51.688c1.475 0 2.671-1.378 2.671-3.078s-1.196-3.079-2.671-3.079c-1.475 0-2.671 1.379-2.671 3.079 0 1.7 1.196 3.078 2.671 3.078z"/>
    <path fill="#D1D3D4" d="M455.434 291.418h-27.276c-.162 0-.324-.162-.324-.324s.162-.324.324-.324h27.195c.161 0 .323.162.323.324s-.081.324-.242.324zM433.903 340.839h-27.194c-.162 0-.324-.162-.324-.324 0-.163.162-.325.324-.325h27.194c.162 0 .324.162.324.325 0 .162-.162.324-.324.324zM431.234 345.618h-27.195c-.162 0-.324-.162-.324-.324s.162-.324.324-.324h27.195c.161 0 .323.162.323.324s-.081.324-.323.324zM416.179 291.418h-46.701c-.162 0-.324-.162-.324-.324s.162-.324.324-.324h46.701c.162 0 .324.162.324.324s-.162.324-.324.324zM370.531 326.012h-18.049c-.162 0-.324-.162-.324-.324s.162-.324.324-.324h18.049c.162 0 .324.162.324.324s-.081.324-.324.324zM394.892 326.012h-18.049c-.162 0-.323-.162-.323-.324s.161-.324.323-.324h18.049c.162 0 .324.162.324.324s-.162.324-.324.324zM367.375 330.711h-18.049c-.162 0-.324-.162-.324-.324s.162-.325.324-.325h18.049c.162 0 .323.163.323.325s-.081.324-.323.324zM391.736 330.711h-18.049c-.162 0-.324-.162-.324-.324s.162-.325.324-.325h18.049c.162 0 .324.163.324.325s-.162.324-.324.324zM365.836 335.815h-16.43c-.162 0-.324-.162-.324-.324s.162-.324.324-.324h16.43c.162 0 .324.162.324.324s-.162.324-.324.324zM390.199 335.815H372.15c-.162 0-.324-.162-.324-.324s.162-.324.324-.324h18.049c.162 0 .324.162.324.324s-.162.324-.324.324zM362.68 340.595h-8.175c-.161 0-.323-.162-.323-.324s.162-.324.323-.324h8.175c.162 0 .324.162.324.324s-.162.324-.324.324zM387.041 340.595h-18.049c-.162 0-.324-.162-.324-.324s.162-.324.324-.324h18.049c.162 0 .323.162.323.324s-.161.324-.323.324zM356.286 317.83c-.081 0-.162-.081-.243-.162-.081-.081-.081-.162 0-.324l9.632-19.364c.081-.081.162-.162.242-.162h47.996c.081 0 .162.081.243.162.081.081.081.162 0 .324l-8.741 19.283c-.081.081-.162.162-.243.162l-48.886.081zm9.793-19.364l-9.388 18.715 48.157-.081 8.499-18.634h-47.268zM435.928 334.032h-27.033c-.081 0-.162-.081-.243-.162-.08-.081-.08-.162 0-.324l17.645-36.538c.081-.081.162-.162.243-.162h26.223c.081 0 .162.081.243.162.081.081.081.162 0 .324l-16.754 36.538c-.081.081-.243.162-.324.162zm-26.547-.567h26.385l16.512-35.89h-25.577l-17.32 35.89z"/>
    <path fill="#1D8348" d="M267.013 362.389s-.324 6.481-3.724 8.263c0 0-1.133.324-.809-7.291l4.533-.972z"/>
    <path fill="#B4D1F8" d="M271.707 366.683v9.074l158.88.162 5.989-13.287H275.592c-2.104 0-3.885 1.782-3.885 4.051z"/>
    <path fill="#D1D3D4" d="M463.689 285.098H364.46c-.161 0-.323-.162-.323-.324s.162-.324.323-.324h99.229c.162 0 .324.162.324.324s-.162.324-.324.324z"/>
    <path fill="#fff" d="M410.514 205.459c-.162 0-.324-.162-.405-.324l-12.869-54.12c0-.081 0-.243.081-.324.081-.081.162-.162.324-.162h137.674c.162 0 .243.081.324.162.081.081.081.243.081.405l-18.049 53.958c-.081.243-.324.324-.486.243-.243-.081-.324-.324-.243-.486l17.887-53.472H398.05l12.788 53.634c.081.243-.081.405-.324.486z"/>
    <path fill="#FFE5AD" d="M.81 301.545H0v-19.606h17.482v-18.067h16.43v.81h-15.62v18.067H.809v18.796z"/>
</svg>
